<mxfile host="app.diagrams.net" agent="Mozilla/5.0 (X11; Linux x86_64) AppleWebKit/537.36 (KHTML, like Gecko) Chrome/131.0.0.0 Safari/537.36" version="24.8.6">
  <diagram name="Página-1" id="_gUe8vNimMI42aKXAMAF">
    <mxGraphModel dx="2329" dy="621" grid="1" gridSize="10" guides="1" tooltips="1" connect="1" arrows="1" fold="1" page="1" pageScale="1" pageWidth="827" pageHeight="1169" math="0" shadow="0">
      <root>
        <mxCell id="0" />
        <mxCell id="1" parent="0" />
        <mxCell id="2lY7sNvGkSiRk7kavxbV-1" value="Diagrama de flujo&lt;div style=&quot;font-size: 20px;&quot;&gt;Centurión&lt;/div&gt;" style="text;html=1;align=center;verticalAlign=middle;whiteSpace=wrap;rounded=0;fontStyle=1;fontSize=20;" vertex="1" parent="1">
          <mxGeometry x="310" y="50" width="200" height="30" as="geometry" />
        </mxCell>
        <mxCell id="2lY7sNvGkSiRk7kavxbV-33" style="edgeStyle=orthogonalEdgeStyle;rounded=0;orthogonalLoop=1;jettySize=auto;html=1;exitX=0.5;exitY=1;exitDx=0;exitDy=0;" edge="1" parent="1" source="2lY7sNvGkSiRk7kavxbV-3">
          <mxGeometry relative="1" as="geometry">
            <mxPoint x="-170" y="953" as="targetPoint" />
          </mxGeometry>
        </mxCell>
        <mxCell id="2lY7sNvGkSiRk7kavxbV-34" style="edgeStyle=orthogonalEdgeStyle;rounded=0;orthogonalLoop=1;jettySize=auto;html=1;exitX=0.5;exitY=0;exitDx=0;exitDy=0;entryX=0.5;entryY=0;entryDx=0;entryDy=0;" edge="1" parent="1" source="2lY7sNvGkSiRk7kavxbV-31" target="2lY7sNvGkSiRk7kavxbV-30">
          <mxGeometry relative="1" as="geometry" />
        </mxCell>
        <mxCell id="2lY7sNvGkSiRk7kavxbV-35" style="edgeStyle=orthogonalEdgeStyle;rounded=0;orthogonalLoop=1;jettySize=auto;html=1;exitX=0.5;exitY=1;exitDx=0;exitDy=0;entryX=0.5;entryY=0;entryDx=0;entryDy=0;" edge="1" parent="1" source="2lY7sNvGkSiRk7kavxbV-3" target="2lY7sNvGkSiRk7kavxbV-32">
          <mxGeometry relative="1" as="geometry" />
        </mxCell>
        <mxCell id="2lY7sNvGkSiRk7kavxbV-3" value="Visualización de controladores para administrador" style="rounded=1;whiteSpace=wrap;html=1;" vertex="1" parent="1">
          <mxGeometry x="23" y="851" width="120" height="60" as="geometry" />
        </mxCell>
        <mxCell id="2lY7sNvGkSiRk7kavxbV-4" value="Visualización de historial" style="rounded=1;whiteSpace=wrap;html=1;" vertex="1" parent="1">
          <mxGeometry x="-230" y="1068" width="120" height="60" as="geometry" />
        </mxCell>
        <mxCell id="2lY7sNvGkSiRk7kavxbV-77" style="edgeStyle=orthogonalEdgeStyle;rounded=0;orthogonalLoop=1;jettySize=auto;html=1;exitX=0.5;exitY=1;exitDx=0;exitDy=0;entryX=0.5;entryY=0;entryDx=0;entryDy=0;" edge="1" parent="1" source="2lY7sNvGkSiRk7kavxbV-5" target="2lY7sNvGkSiRk7kavxbV-74">
          <mxGeometry relative="1" as="geometry" />
        </mxCell>
        <mxCell id="2lY7sNvGkSiRk7kavxbV-5" value="Visualización de monitoreo" style="rounded=1;whiteSpace=wrap;html=1;" vertex="1" parent="1">
          <mxGeometry x="-62" y="1070" width="120" height="60" as="geometry" />
        </mxCell>
        <mxCell id="2lY7sNvGkSiRk7kavxbV-6" value="Adición de nuevo controlador" style="rounded=1;whiteSpace=wrap;html=1;" vertex="1" parent="1">
          <mxGeometry x="280" y="1069" width="120" height="60" as="geometry" />
        </mxCell>
        <mxCell id="2lY7sNvGkSiRk7kavxbV-7" value="Consulta de monitoreo por fecha y hora" style="rounded=1;whiteSpace=wrap;html=1;" vertex="1" parent="1">
          <mxGeometry x="-62" y="1297" width="120" height="60" as="geometry" />
        </mxCell>
        <mxCell id="2lY7sNvGkSiRk7kavxbV-10" style="edgeStyle=orthogonalEdgeStyle;rounded=0;orthogonalLoop=1;jettySize=auto;html=1;exitX=0.5;exitY=1;exitDx=0;exitDy=0;entryX=0.5;entryY=0;entryDx=0;entryDy=0;" edge="1" parent="1" source="2lY7sNvGkSiRk7kavxbV-8" target="2lY7sNvGkSiRk7kavxbV-9">
          <mxGeometry relative="1" as="geometry" />
        </mxCell>
        <mxCell id="2lY7sNvGkSiRk7kavxbV-8" value="Inicio de sesión&amp;nbsp;&lt;div&gt;Key-City&lt;/div&gt;" style="ellipse;whiteSpace=wrap;html=1;" vertex="1" parent="1">
          <mxGeometry x="350" y="120" width="124" height="60" as="geometry" />
        </mxCell>
        <mxCell id="2lY7sNvGkSiRk7kavxbV-11" style="edgeStyle=orthogonalEdgeStyle;rounded=0;orthogonalLoop=1;jettySize=auto;html=1;exitX=1;exitY=0.5;exitDx=0;exitDy=0;entryX=1;entryY=0.5;entryDx=0;entryDy=0;" edge="1" parent="1" source="2lY7sNvGkSiRk7kavxbV-9" target="2lY7sNvGkSiRk7kavxbV-8">
          <mxGeometry relative="1" as="geometry" />
        </mxCell>
        <mxCell id="2lY7sNvGkSiRk7kavxbV-12" value="No" style="edgeLabel;html=1;align=center;verticalAlign=middle;resizable=0;points=[];" vertex="1" connectable="0" parent="2lY7sNvGkSiRk7kavxbV-11">
          <mxGeometry x="-0.4225" y="3" relative="1" as="geometry">
            <mxPoint y="7" as="offset" />
          </mxGeometry>
        </mxCell>
        <mxCell id="2lY7sNvGkSiRk7kavxbV-14" style="edgeStyle=orthogonalEdgeStyle;rounded=0;orthogonalLoop=1;jettySize=auto;html=1;exitX=0.5;exitY=1;exitDx=0;exitDy=0;entryX=0.5;entryY=0;entryDx=0;entryDy=0;" edge="1" parent="1" source="2lY7sNvGkSiRk7kavxbV-9" target="2lY7sNvGkSiRk7kavxbV-13">
          <mxGeometry relative="1" as="geometry" />
        </mxCell>
        <mxCell id="2lY7sNvGkSiRk7kavxbV-15" value="Si" style="edgeLabel;html=1;align=center;verticalAlign=middle;resizable=0;points=[];" vertex="1" connectable="0" parent="2lY7sNvGkSiRk7kavxbV-14">
          <mxGeometry x="-0.3" y="-1" relative="1" as="geometry">
            <mxPoint as="offset" />
          </mxGeometry>
        </mxCell>
        <mxCell id="2lY7sNvGkSiRk7kavxbV-9" value="¿Usuario encontrado?" style="rhombus;whiteSpace=wrap;html=1;" vertex="1" parent="1">
          <mxGeometry x="358" y="208" width="108" height="80" as="geometry" />
        </mxCell>
        <mxCell id="2lY7sNvGkSiRk7kavxbV-17" style="edgeStyle=orthogonalEdgeStyle;rounded=0;orthogonalLoop=1;jettySize=auto;html=1;exitX=0.5;exitY=1;exitDx=0;exitDy=0;entryX=0.5;entryY=0;entryDx=0;entryDy=0;" edge="1" parent="1" source="2lY7sNvGkSiRk7kavxbV-13" target="2lY7sNvGkSiRk7kavxbV-16">
          <mxGeometry relative="1" as="geometry" />
        </mxCell>
        <mxCell id="2lY7sNvGkSiRk7kavxbV-13" value="Acceso a los proyectos" style="rounded=1;whiteSpace=wrap;html=1;" vertex="1" parent="1">
          <mxGeometry x="352" y="324" width="120" height="60" as="geometry" />
        </mxCell>
        <mxCell id="2lY7sNvGkSiRk7kavxbV-18" style="edgeStyle=orthogonalEdgeStyle;rounded=0;orthogonalLoop=1;jettySize=auto;html=1;exitX=1;exitY=0.5;exitDx=0;exitDy=0;entryX=1;entryY=0.5;entryDx=0;entryDy=0;" edge="1" parent="1" source="2lY7sNvGkSiRk7kavxbV-16" target="2lY7sNvGkSiRk7kavxbV-13">
          <mxGeometry relative="1" as="geometry" />
        </mxCell>
        <mxCell id="2lY7sNvGkSiRk7kavxbV-19" value="No" style="edgeLabel;html=1;align=center;verticalAlign=middle;resizable=0;points=[];" vertex="1" connectable="0" parent="2lY7sNvGkSiRk7kavxbV-18">
          <mxGeometry x="-0.5286" relative="1" as="geometry">
            <mxPoint as="offset" />
          </mxGeometry>
        </mxCell>
        <mxCell id="2lY7sNvGkSiRk7kavxbV-21" style="edgeStyle=orthogonalEdgeStyle;rounded=0;orthogonalLoop=1;jettySize=auto;html=1;exitX=0.5;exitY=1;exitDx=0;exitDy=0;" edge="1" parent="1" source="2lY7sNvGkSiRk7kavxbV-16" target="2lY7sNvGkSiRk7kavxbV-20">
          <mxGeometry relative="1" as="geometry" />
        </mxCell>
        <mxCell id="2lY7sNvGkSiRk7kavxbV-22" value="Si" style="edgeLabel;html=1;align=center;verticalAlign=middle;resizable=0;points=[];" vertex="1" connectable="0" parent="2lY7sNvGkSiRk7kavxbV-21">
          <mxGeometry x="-0.1707" y="-1" relative="1" as="geometry">
            <mxPoint as="offset" />
          </mxGeometry>
        </mxCell>
        <mxCell id="2lY7sNvGkSiRk7kavxbV-16" value="¿Proyecto seleccionado?" style="rhombus;whiteSpace=wrap;html=1;" vertex="1" parent="1">
          <mxGeometry x="350" y="420" width="116" height="80" as="geometry" />
        </mxCell>
        <mxCell id="2lY7sNvGkSiRk7kavxbV-24" style="edgeStyle=orthogonalEdgeStyle;rounded=0;orthogonalLoop=1;jettySize=auto;html=1;exitX=0.5;exitY=1;exitDx=0;exitDy=0;entryX=0.5;entryY=0;entryDx=0;entryDy=0;" edge="1" parent="1" source="2lY7sNvGkSiRk7kavxbV-20" target="2lY7sNvGkSiRk7kavxbV-23">
          <mxGeometry relative="1" as="geometry" />
        </mxCell>
        <mxCell id="2lY7sNvGkSiRk7kavxbV-20" value="Acceso a Centurión" style="rounded=1;whiteSpace=wrap;html=1;" vertex="1" parent="1">
          <mxGeometry x="348" y="541" width="120" height="40" as="geometry" />
        </mxCell>
        <mxCell id="2lY7sNvGkSiRk7kavxbV-25" style="edgeStyle=orthogonalEdgeStyle;rounded=0;orthogonalLoop=1;jettySize=auto;html=1;exitX=0;exitY=0.5;exitDx=0;exitDy=0;entryX=0;entryY=0.5;entryDx=0;entryDy=0;" edge="1" parent="1" source="2lY7sNvGkSiRk7kavxbV-23" target="2lY7sNvGkSiRk7kavxbV-13">
          <mxGeometry relative="1" as="geometry" />
        </mxCell>
        <mxCell id="2lY7sNvGkSiRk7kavxbV-26" value="No" style="edgeLabel;html=1;align=center;verticalAlign=middle;resizable=0;points=[];" vertex="1" connectable="0" parent="2lY7sNvGkSiRk7kavxbV-25">
          <mxGeometry x="-0.9473" y="2" relative="1" as="geometry">
            <mxPoint x="-12" y="-19" as="offset" />
          </mxGeometry>
        </mxCell>
        <mxCell id="2lY7sNvGkSiRk7kavxbV-45" style="edgeStyle=orthogonalEdgeStyle;rounded=0;orthogonalLoop=1;jettySize=auto;html=1;exitX=0.5;exitY=1;exitDx=0;exitDy=0;entryX=0.5;entryY=0;entryDx=0;entryDy=0;" edge="1" parent="1" source="2lY7sNvGkSiRk7kavxbV-23" target="2lY7sNvGkSiRk7kavxbV-44">
          <mxGeometry relative="1" as="geometry" />
        </mxCell>
        <mxCell id="2lY7sNvGkSiRk7kavxbV-46" value="Si" style="edgeLabel;html=1;align=center;verticalAlign=middle;resizable=0;points=[];" vertex="1" connectable="0" parent="2lY7sNvGkSiRk7kavxbV-45">
          <mxGeometry x="-0.2211" y="2" relative="1" as="geometry">
            <mxPoint x="-3" y="1" as="offset" />
          </mxGeometry>
        </mxCell>
        <mxCell id="2lY7sNvGkSiRk7kavxbV-23" value="¿Usuario encontrado?" style="rhombus;whiteSpace=wrap;html=1;" vertex="1" parent="1">
          <mxGeometry x="354" y="610" width="108" height="80" as="geometry" />
        </mxCell>
        <mxCell id="2lY7sNvGkSiRk7kavxbV-36" style="edgeStyle=orthogonalEdgeStyle;rounded=0;orthogonalLoop=1;jettySize=auto;html=1;entryX=0.5;entryY=0;entryDx=0;entryDy=0;" edge="1" parent="1" source="2lY7sNvGkSiRk7kavxbV-29" target="2lY7sNvGkSiRk7kavxbV-4">
          <mxGeometry relative="1" as="geometry">
            <mxPoint x="-170" y="1033" as="sourcePoint" />
            <mxPoint x="-170" y="1063" as="targetPoint" />
          </mxGeometry>
        </mxCell>
        <mxCell id="2lY7sNvGkSiRk7kavxbV-79" value="Si" style="edgeLabel;html=1;align=center;verticalAlign=middle;resizable=0;points=[];" vertex="1" connectable="0" parent="2lY7sNvGkSiRk7kavxbV-36">
          <mxGeometry x="-0.3581" y="-2" relative="1" as="geometry">
            <mxPoint as="offset" />
          </mxGeometry>
        </mxCell>
        <mxCell id="2lY7sNvGkSiRk7kavxbV-67" style="edgeStyle=orthogonalEdgeStyle;rounded=0;orthogonalLoop=1;jettySize=auto;html=1;exitX=0;exitY=0.5;exitDx=0;exitDy=0;entryX=0;entryY=0.5;entryDx=0;entryDy=0;" edge="1" parent="1" source="2lY7sNvGkSiRk7kavxbV-29" target="2lY7sNvGkSiRk7kavxbV-3">
          <mxGeometry relative="1" as="geometry">
            <mxPoint x="-240" y="860" as="targetPoint" />
          </mxGeometry>
        </mxCell>
        <mxCell id="2lY7sNvGkSiRk7kavxbV-68" value="No" style="edgeLabel;html=1;align=center;verticalAlign=middle;resizable=0;points=[];" vertex="1" connectable="0" parent="2lY7sNvGkSiRk7kavxbV-67">
          <mxGeometry x="-0.8045" y="1" relative="1" as="geometry">
            <mxPoint as="offset" />
          </mxGeometry>
        </mxCell>
        <mxCell id="2lY7sNvGkSiRk7kavxbV-29" value="¿Historial seleccionado?" style="rhombus;whiteSpace=wrap;html=1;" vertex="1" parent="1">
          <mxGeometry x="-228" y="951" width="116" height="80" as="geometry" />
        </mxCell>
        <mxCell id="2lY7sNvGkSiRk7kavxbV-37" style="edgeStyle=orthogonalEdgeStyle;rounded=0;orthogonalLoop=1;jettySize=auto;html=1;exitX=0.5;exitY=1;exitDx=0;exitDy=0;entryX=0.5;entryY=0;entryDx=0;entryDy=0;" edge="1" parent="1" source="2lY7sNvGkSiRk7kavxbV-30" target="2lY7sNvGkSiRk7kavxbV-5">
          <mxGeometry relative="1" as="geometry" />
        </mxCell>
        <mxCell id="2lY7sNvGkSiRk7kavxbV-80" value="Si" style="edgeLabel;html=1;align=center;verticalAlign=middle;resizable=0;points=[];" vertex="1" connectable="0" parent="2lY7sNvGkSiRk7kavxbV-37">
          <mxGeometry x="-0.3081" relative="1" as="geometry">
            <mxPoint x="-1" as="offset" />
          </mxGeometry>
        </mxCell>
        <mxCell id="2lY7sNvGkSiRk7kavxbV-66" style="edgeStyle=orthogonalEdgeStyle;rounded=0;orthogonalLoop=1;jettySize=auto;html=1;exitX=0;exitY=0.5;exitDx=0;exitDy=0;entryX=0;entryY=0.5;entryDx=0;entryDy=0;" edge="1" parent="1" source="2lY7sNvGkSiRk7kavxbV-30" target="2lY7sNvGkSiRk7kavxbV-3">
          <mxGeometry relative="1" as="geometry" />
        </mxCell>
        <mxCell id="2lY7sNvGkSiRk7kavxbV-69" value="No" style="edgeLabel;html=1;align=center;verticalAlign=middle;resizable=0;points=[];" vertex="1" connectable="0" parent="2lY7sNvGkSiRk7kavxbV-66">
          <mxGeometry x="-0.7089" relative="1" as="geometry">
            <mxPoint y="-7" as="offset" />
          </mxGeometry>
        </mxCell>
        <mxCell id="2lY7sNvGkSiRk7kavxbV-30" value="¿Monitoreo seleccionado?" style="rhombus;whiteSpace=wrap;html=1;" vertex="1" parent="1">
          <mxGeometry x="-60" y="953" width="116" height="80" as="geometry" />
        </mxCell>
        <mxCell id="2lY7sNvGkSiRk7kavxbV-40" style="edgeStyle=orthogonalEdgeStyle;rounded=0;orthogonalLoop=1;jettySize=auto;html=1;exitX=0.5;exitY=1;exitDx=0;exitDy=0;entryX=0.5;entryY=0;entryDx=0;entryDy=0;" edge="1" parent="1" source="2lY7sNvGkSiRk7kavxbV-31" target="2lY7sNvGkSiRk7kavxbV-39">
          <mxGeometry relative="1" as="geometry" />
        </mxCell>
        <mxCell id="2lY7sNvGkSiRk7kavxbV-81" value="Si" style="edgeLabel;html=1;align=center;verticalAlign=middle;resizable=0;points=[];" vertex="1" connectable="0" parent="2lY7sNvGkSiRk7kavxbV-40">
          <mxGeometry x="-0.2889" relative="1" as="geometry">
            <mxPoint x="-1" as="offset" />
          </mxGeometry>
        </mxCell>
        <mxCell id="2lY7sNvGkSiRk7kavxbV-70" style="edgeStyle=orthogonalEdgeStyle;rounded=0;orthogonalLoop=1;jettySize=auto;html=1;exitX=1;exitY=0.5;exitDx=0;exitDy=0;entryX=1;entryY=0.5;entryDx=0;entryDy=0;" edge="1" parent="1" source="2lY7sNvGkSiRk7kavxbV-31" target="2lY7sNvGkSiRk7kavxbV-3">
          <mxGeometry relative="1" as="geometry" />
        </mxCell>
        <mxCell id="2lY7sNvGkSiRk7kavxbV-73" value="No" style="edgeLabel;html=1;align=center;verticalAlign=middle;resizable=0;points=[];" vertex="1" connectable="0" parent="2lY7sNvGkSiRk7kavxbV-70">
          <mxGeometry x="-0.6749" y="-1" relative="1" as="geometry">
            <mxPoint as="offset" />
          </mxGeometry>
        </mxCell>
        <mxCell id="2lY7sNvGkSiRk7kavxbV-31" value="¿Programación seleccionada?" style="rhombus;whiteSpace=wrap;html=1;" vertex="1" parent="1">
          <mxGeometry x="110" y="953" width="116" height="80" as="geometry" />
        </mxCell>
        <mxCell id="2lY7sNvGkSiRk7kavxbV-38" style="edgeStyle=orthogonalEdgeStyle;rounded=0;orthogonalLoop=1;jettySize=auto;html=1;exitX=0.5;exitY=1;exitDx=0;exitDy=0;entryX=0.5;entryY=0;entryDx=0;entryDy=0;" edge="1" parent="1" source="2lY7sNvGkSiRk7kavxbV-32" target="2lY7sNvGkSiRk7kavxbV-6">
          <mxGeometry relative="1" as="geometry" />
        </mxCell>
        <mxCell id="2lY7sNvGkSiRk7kavxbV-82" value="Si" style="edgeLabel;html=1;align=center;verticalAlign=middle;resizable=0;points=[];" vertex="1" connectable="0" parent="2lY7sNvGkSiRk7kavxbV-38">
          <mxGeometry x="-0.2333" y="-1" relative="1" as="geometry">
            <mxPoint as="offset" />
          </mxGeometry>
        </mxCell>
        <mxCell id="2lY7sNvGkSiRk7kavxbV-71" style="edgeStyle=orthogonalEdgeStyle;rounded=0;orthogonalLoop=1;jettySize=auto;html=1;exitX=1;exitY=0.5;exitDx=0;exitDy=0;entryX=1;entryY=0.5;entryDx=0;entryDy=0;" edge="1" parent="1" source="2lY7sNvGkSiRk7kavxbV-32" target="2lY7sNvGkSiRk7kavxbV-3">
          <mxGeometry relative="1" as="geometry">
            <mxPoint x="340" y="880" as="targetPoint" />
          </mxGeometry>
        </mxCell>
        <mxCell id="2lY7sNvGkSiRk7kavxbV-72" value="No" style="edgeLabel;html=1;align=center;verticalAlign=middle;resizable=0;points=[];" vertex="1" connectable="0" parent="2lY7sNvGkSiRk7kavxbV-71">
          <mxGeometry x="-0.8025" y="-1" relative="1" as="geometry">
            <mxPoint as="offset" />
          </mxGeometry>
        </mxCell>
        <mxCell id="2lY7sNvGkSiRk7kavxbV-32" value="¿Nuevo&amp;nbsp;&lt;div&gt;controlador?&lt;/div&gt;" style="rhombus;whiteSpace=wrap;html=1;" vertex="1" parent="1">
          <mxGeometry x="282" y="953" width="116" height="80" as="geometry" />
        </mxCell>
        <mxCell id="2lY7sNvGkSiRk7kavxbV-39" value="Visualización de programación" style="rounded=1;whiteSpace=wrap;html=1;" vertex="1" parent="1">
          <mxGeometry x="108" y="1069" width="120" height="60" as="geometry" />
        </mxCell>
        <mxCell id="2lY7sNvGkSiRk7kavxbV-54" style="edgeStyle=orthogonalEdgeStyle;rounded=0;orthogonalLoop=1;jettySize=auto;html=1;exitX=0.5;exitY=1;exitDx=0;exitDy=0;entryX=0.5;entryY=0;entryDx=0;entryDy=0;" edge="1" parent="1" source="2lY7sNvGkSiRk7kavxbV-41" target="2lY7sNvGkSiRk7kavxbV-52">
          <mxGeometry relative="1" as="geometry" />
        </mxCell>
        <mxCell id="2lY7sNvGkSiRk7kavxbV-41" value="Visualización de controladores para operador o invitado" style="rounded=1;whiteSpace=wrap;html=1;" vertex="1" parent="1">
          <mxGeometry x="590" y="840" width="120" height="60" as="geometry" />
        </mxCell>
        <mxCell id="2lY7sNvGkSiRk7kavxbV-47" style="edgeStyle=orthogonalEdgeStyle;rounded=0;orthogonalLoop=1;jettySize=auto;html=1;exitX=0.5;exitY=1;exitDx=0;exitDy=0;entryX=0.5;entryY=0;entryDx=0;entryDy=0;" edge="1" parent="1" source="2lY7sNvGkSiRk7kavxbV-44" target="2lY7sNvGkSiRk7kavxbV-3">
          <mxGeometry relative="1" as="geometry" />
        </mxCell>
        <mxCell id="2lY7sNvGkSiRk7kavxbV-48" value="Si" style="edgeLabel;html=1;align=center;verticalAlign=middle;resizable=0;points=[];" vertex="1" connectable="0" parent="2lY7sNvGkSiRk7kavxbV-47">
          <mxGeometry x="-0.7777" y="-1" relative="1" as="geometry">
            <mxPoint x="4" y="1" as="offset" />
          </mxGeometry>
        </mxCell>
        <mxCell id="2lY7sNvGkSiRk7kavxbV-49" style="edgeStyle=orthogonalEdgeStyle;rounded=0;orthogonalLoop=1;jettySize=auto;html=1;exitX=1;exitY=0.5;exitDx=0;exitDy=0;entryX=0.5;entryY=0;entryDx=0;entryDy=0;" edge="1" parent="1" source="2lY7sNvGkSiRk7kavxbV-44" target="2lY7sNvGkSiRk7kavxbV-41">
          <mxGeometry relative="1" as="geometry" />
        </mxCell>
        <mxCell id="2lY7sNvGkSiRk7kavxbV-50" value="No" style="edgeLabel;html=1;align=center;verticalAlign=middle;resizable=0;points=[];" vertex="1" connectable="0" parent="2lY7sNvGkSiRk7kavxbV-49">
          <mxGeometry x="0.3012" y="1" relative="1" as="geometry">
            <mxPoint as="offset" />
          </mxGeometry>
        </mxCell>
        <mxCell id="2lY7sNvGkSiRk7kavxbV-44" value="¿Es&amp;nbsp;&lt;div&gt;administrador?&lt;/div&gt;" style="rhombus;whiteSpace=wrap;html=1;" vertex="1" parent="1">
          <mxGeometry x="347" y="728" width="122" height="80" as="geometry" />
        </mxCell>
        <mxCell id="2lY7sNvGkSiRk7kavxbV-55" style="edgeStyle=orthogonalEdgeStyle;rounded=0;orthogonalLoop=1;jettySize=auto;html=1;exitX=1;exitY=0.5;exitDx=0;exitDy=0;entryX=1;entryY=0.5;entryDx=0;entryDy=0;" edge="1" parent="1" source="2lY7sNvGkSiRk7kavxbV-52" target="2lY7sNvGkSiRk7kavxbV-41">
          <mxGeometry relative="1" as="geometry" />
        </mxCell>
        <mxCell id="2lY7sNvGkSiRk7kavxbV-56" value="No" style="edgeLabel;html=1;align=center;verticalAlign=middle;resizable=0;points=[];" vertex="1" connectable="0" parent="2lY7sNvGkSiRk7kavxbV-55">
          <mxGeometry x="-0.4029" y="1" relative="1" as="geometry">
            <mxPoint as="offset" />
          </mxGeometry>
        </mxCell>
        <mxCell id="2lY7sNvGkSiRk7kavxbV-59" style="edgeStyle=orthogonalEdgeStyle;rounded=0;orthogonalLoop=1;jettySize=auto;html=1;exitX=0.5;exitY=1;exitDx=0;exitDy=0;entryX=0.5;entryY=0;entryDx=0;entryDy=0;" edge="1" parent="1" source="2lY7sNvGkSiRk7kavxbV-52" target="2lY7sNvGkSiRk7kavxbV-58">
          <mxGeometry relative="1" as="geometry" />
        </mxCell>
        <mxCell id="2lY7sNvGkSiRk7kavxbV-60" value="Si" style="edgeLabel;html=1;align=center;verticalAlign=middle;resizable=0;points=[];" vertex="1" connectable="0" parent="2lY7sNvGkSiRk7kavxbV-59">
          <mxGeometry x="-0.278" y="1" relative="1" as="geometry">
            <mxPoint x="-2" as="offset" />
          </mxGeometry>
        </mxCell>
        <mxCell id="2lY7sNvGkSiRk7kavxbV-52" value="¿Programación seleccionada?" style="rhombus;whiteSpace=wrap;html=1;" vertex="1" parent="1">
          <mxGeometry x="592" y="930" width="116" height="80" as="geometry" />
        </mxCell>
        <mxCell id="2lY7sNvGkSiRk7kavxbV-53" value="Visualización de programación para operador" style="rounded=1;whiteSpace=wrap;html=1;" vertex="1" parent="1">
          <mxGeometry x="591" y="1169" width="120" height="60" as="geometry" />
        </mxCell>
        <mxCell id="2lY7sNvGkSiRk7kavxbV-61" style="edgeStyle=orthogonalEdgeStyle;rounded=0;orthogonalLoop=1;jettySize=auto;html=1;exitX=0.5;exitY=1;exitDx=0;exitDy=0;entryX=0.5;entryY=0;entryDx=0;entryDy=0;" edge="1" parent="1" source="2lY7sNvGkSiRk7kavxbV-58" target="2lY7sNvGkSiRk7kavxbV-53">
          <mxGeometry relative="1" as="geometry" />
        </mxCell>
        <mxCell id="2lY7sNvGkSiRk7kavxbV-62" value="Si" style="edgeLabel;html=1;align=center;verticalAlign=middle;resizable=0;points=[];" vertex="1" connectable="0" parent="2lY7sNvGkSiRk7kavxbV-61">
          <mxGeometry x="-0.1152" y="1" relative="1" as="geometry">
            <mxPoint x="-1" as="offset" />
          </mxGeometry>
        </mxCell>
        <mxCell id="2lY7sNvGkSiRk7kavxbV-64" style="edgeStyle=orthogonalEdgeStyle;rounded=0;orthogonalLoop=1;jettySize=auto;html=1;exitX=1;exitY=0.5;exitDx=0;exitDy=0;entryX=0;entryY=0.5;entryDx=0;entryDy=0;" edge="1" parent="1" source="2lY7sNvGkSiRk7kavxbV-58" target="2lY7sNvGkSiRk7kavxbV-63">
          <mxGeometry relative="1" as="geometry" />
        </mxCell>
        <mxCell id="2lY7sNvGkSiRk7kavxbV-65" value="No" style="edgeLabel;html=1;align=center;verticalAlign=middle;resizable=0;points=[];" vertex="1" connectable="0" parent="2lY7sNvGkSiRk7kavxbV-64">
          <mxGeometry x="-0.4048" relative="1" as="geometry">
            <mxPoint x="14" as="offset" />
          </mxGeometry>
        </mxCell>
        <mxCell id="2lY7sNvGkSiRk7kavxbV-58" value="¿Es&amp;nbsp;&lt;div&gt;operador?&lt;/div&gt;" style="rhombus;whiteSpace=wrap;html=1;" vertex="1" parent="1">
          <mxGeometry x="595" y="1051" width="111" height="80" as="geometry" />
        </mxCell>
        <mxCell id="2lY7sNvGkSiRk7kavxbV-63" value="Visualización de programación para invitado" style="rounded=1;whiteSpace=wrap;html=1;" vertex="1" parent="1">
          <mxGeometry x="790" y="1061" width="120" height="60" as="geometry" />
        </mxCell>
        <mxCell id="2lY7sNvGkSiRk7kavxbV-83" style="edgeStyle=orthogonalEdgeStyle;rounded=0;orthogonalLoop=1;jettySize=auto;html=1;exitX=0.5;exitY=1;exitDx=0;exitDy=0;entryX=0.5;entryY=0;entryDx=0;entryDy=0;" edge="1" parent="1" source="2lY7sNvGkSiRk7kavxbV-74" target="2lY7sNvGkSiRk7kavxbV-7">
          <mxGeometry relative="1" as="geometry" />
        </mxCell>
        <mxCell id="2lY7sNvGkSiRk7kavxbV-86" value="Si" style="edgeLabel;html=1;align=center;verticalAlign=middle;resizable=0;points=[];" vertex="1" connectable="0" parent="2lY7sNvGkSiRk7kavxbV-83">
          <mxGeometry x="-0.11" y="-2" relative="1" as="geometry">
            <mxPoint as="offset" />
          </mxGeometry>
        </mxCell>
        <mxCell id="2lY7sNvGkSiRk7kavxbV-84" style="edgeStyle=orthogonalEdgeStyle;rounded=0;orthogonalLoop=1;jettySize=auto;html=1;exitX=1;exitY=0.5;exitDx=0;exitDy=0;entryX=1;entryY=0.5;entryDx=0;entryDy=0;" edge="1" parent="1" source="2lY7sNvGkSiRk7kavxbV-74" target="2lY7sNvGkSiRk7kavxbV-5">
          <mxGeometry relative="1" as="geometry" />
        </mxCell>
        <mxCell id="2lY7sNvGkSiRk7kavxbV-85" value="No" style="edgeLabel;html=1;align=center;verticalAlign=middle;resizable=0;points=[];" vertex="1" connectable="0" parent="2lY7sNvGkSiRk7kavxbV-84">
          <mxGeometry x="-0.4288" y="2" relative="1" as="geometry">
            <mxPoint as="offset" />
          </mxGeometry>
        </mxCell>
        <mxCell id="2lY7sNvGkSiRk7kavxbV-74" value="¿Fecha y/u hora seleccionado?" style="rhombus;whiteSpace=wrap;html=1;" vertex="1" parent="1">
          <mxGeometry x="-60" y="1166" width="116" height="91" as="geometry" />
        </mxCell>
      </root>
    </mxGraphModel>
  </diagram>
</mxfile>
